<?xml version="1.0" encoding="utf-8"?>
<!-- Generator: Adobe Illustrator 19.0.0, SVG Export Plug-In . SVG Version: 6.00 Build 0)  -->
<svg version="1.1" id="Layer_1" xmlns:sketch="http://www.bohemiancoding.com/sketch/ns"
	 xmlns="http://www.w3.org/2000/svg" xmlns:xlink="http://www.w3.org/1999/xlink" x="0px" y="0px" viewBox="-305 168 24 24"
	 style="enable-background:new -305 168 24 24;" xml:space="preserve">
<style type="text/css">
	.st0{fill:#FFFFFF;}
</style>
<title></title>
<desc></desc>
<g id="miu">
	<g id="Artboard-1" transform="translate(-359.000000, -299.000000)">
		<g id="slice" transform="translate(215.000000, 119.000000)">
		</g>
		<path id="editor-images-pictures-photos-collection-outline-stroke" class="st0" d="M63.3,477l3.3,5.6c0,0.1,0.1,0.1,0.2,0
			l2.8-1.9c0.1-0.1,0.3-0.1,0.4,0.1l5,5.9c0.1,0.1,0,0.2-0.1,0.2H57.1c-0.2,0-0.2-0.1-0.1-0.3l6-9.6C63.1,476.8,63.2,476.8,63.3,477
			z M57,469v1h18v-1H57z M56,471v1h20v-1H56z M76.9,473H55.1c-0.1,0-0.1,0.1-0.1,0.1v15.7c0,0.1,0.1,0.1,0.1,0.1h21.7
			c0.1,0,0.1-0.1,0.1-0.1v-15.7C77,473.1,76.9,473,76.9,473z M72.5,478c-0.8,0-1.5-0.7-1.5-1.5s0.7-1.5,1.5-1.5s1.5,0.7,1.5,1.5
			S73.3,478,72.5,478z"/>
	</g>
</g>
</svg>
