<?xml version="1.0" encoding="utf-8"?>
<!-- Generator: Adobe Illustrator 19.0.0, SVG Export Plug-In . SVG Version: 6.00 Build 0)  -->
<svg version="1.1" id="Layer_1" focusable="false" xmlns="http://www.w3.org/2000/svg" xmlns:xlink="http://www.w3.org/1999/xlink"
	 x="0px" y="0px" viewBox="-383 145 512 512" style="enable-background:new -383 145 512 512;" xml:space="preserve">
<style type="text/css">
	.st0{fill:#FFFFFF;}
</style>
<path class="st0" d="M-79,337v32c0,6.6-5.4,12-12,12h-56v56c0,6.6-5.4,12-12,12h-32c-6.6,0-12-5.4-12-12v-56h-56
	c-6.6,0-12-5.4-12-12v-32c0-6.6,5.4-12,12-12h56v-56c0-6.6,5.4-12,12-12h32c6.6,0,12,5.4,12,12v56h56C-84.4,325-79,330.4-79,337z
	 M122,621.7L93.7,650c-9.4,9.4-24.6,9.4-33.9,0L-40,550.3c-4.5-4.5-7-10.6-7-17V517c-35.3,27.6-79.7,44-128,44
	c-114.9,0-208-93.1-208-208s93.1-208,208-208S33,238.1,33,353c0,48.3-16.4,92.7-44,128H5.3c6.4,0,12.5,2.5,17,7l99.7,99.7
	C131.3,597.1,131.3,612.3,122,621.7z M-39,353c0-75.2-60.8-136-136-136s-136,60.8-136,136s60.8,136,136,136S-39,428.2-39,353z"/>
</svg>
