<?xml version="1.0" encoding="utf-8"?>
<!-- Generator: Adobe Illustrator 19.0.0, SVG Export Plug-In . SVG Version: 6.00 Build 0)  -->
<svg version="1.1" id="Layer_21" xmlns="http://www.w3.org/2000/svg" xmlns:xlink="http://www.w3.org/1999/xlink" x="0px" y="0px"
	 viewBox="-305 168 24 24" style="enable-background:new -305 168 24 24;" xml:space="preserve">
<style type="text/css">
	.st0{fill:#FFFFFF;}
</style>
<title></title>
<path class="st0" d="M-283.2,175.8c-0.1-1.4-1.2-2.4-2.5-2.5c-1.6-0.1-3.9-0.3-6.8-0.3c-3.5,0-6.1,0.1-7.7,0.3
	c-1.4,0.1-2.4,1.2-2.6,2.5c-0.1,1.1-0.2,2.5-0.2,4.2c0,1.7,0.1,3.1,0.2,4.1c0.1,1.4,1.2,2.4,2.6,2.5c1.7,0.1,4.3,0.3,7.7,0.3
	c2.9,0,5.2-0.1,6.8-0.3c1.4-0.1,2.4-1.2,2.5-2.5c0.1-1.1,0.2-2.5,0.2-4.2S-283.1,176.9-283.2,175.8z M-295.2,182.9v-5.9l5.8,2.9
	L-295.2,182.9z"/>
</svg>
