<?xml version="1.0" encoding="utf-8"?>
<!-- Generator: Adobe Illustrator 19.0.0, SVG Export Plug-In . SVG Version: 6.00 Build 0)  -->
<svg version="1.1" xmlns="http://www.w3.org/2000/svg" xmlns:xlink="http://www.w3.org/1999/xlink" x="0px" y="0px"
	 viewBox="0 0 418 418" style="enable-background:new 0 0 418 418;" xml:space="preserve">
<style type="text/css">
	.st0{display:none;}
	.st1{fill:#0377BD;}
	.st2{fill:#039AE4;}
	.st3{fill:#FEFEFE;}
	.st4{fill:#EDEDED;}
</style>
<g id="Layer_1" class="st0">
	
		<image style="display:inline;overflow:visible;" width="1600" height="1600" xlink:href="css3.png"  transform="matrix(0.3375 0 0 0.3375 -113 -104)">
	</image>
</g>
<g id="Layer_2">
	<g>
		<polygon class="st1" points="23,1.1 55.5,372.2 209,416.9 362.5,372.7 395,1.1 		"/>
		<polygon class="st2" points="209,34.2 358.6,34.2 331.8,347.7 209,383.8 		"/>
		<polygon class="st3" points="308.2,89 209,89 209,132.8 262.6,132.8 259.5,176.4 209,176.4 209,220.1 256.8,220.1 253.8,269.2 
			209,284.5 209,330.1 295.2,302.3 		"/>
		<polygon class="st4" points="109,88.8 209,88.8 209,132.6 112.5,132.4 		"/>
		<polygon class="st4" points="159.2,176.2 209,176.2 209,219.9 161.3,219.9 		"/>
		<polygon class="st4" points="209,284.4 209,330.1 123.4,302.2 120,242 163.5,242 164.5,269.5 		"/>
	</g>
</g>
</svg>
