<?xml version="1.0" encoding="utf-8"?>
<!-- Generator: Adobe Illustrator 19.0.0, SVG Export Plug-In . SVG Version: 6.00 Build 0)  -->
<svg version="1.1" id="Layer_1" xmlns="http://www.w3.org/2000/svg" xmlns:xlink="http://www.w3.org/1999/xlink" x="0px" y="0px"
	 viewBox="0 0 800 800" style="enable-background:new 0 0 800 800;" xml:space="preserve">
<g>
	<path d="M392.8,405.3c0.5-6.5,1.5-11.6,1.1-16.7c-1.2-18.6-1.5-37.4-4.5-55.7c-13.3-81.3-69.7-139.6-148.4-154.6
		c-71.4-13.6-152.4,22.7-190,91C3.5,355.8,1.6,446.6,47.1,533.9c47.1,90.5,180.2,118.2,267.7,60.5c43.8-28.8,65.4-70.8,74.7-120.7
		c-22.8-6.3-29.3-3.3-36.4,17.9c-13.4,39.7-34.8,72.6-75.3,89.1c-34.9,14.2-70.9,18.1-108,10.2c-88-19-127.2-114.5-116.9-185.5
		H392.8z M211.4,206.4c84.8-1.2,150.7,72.8,149.6,169.6H52.7C49.2,283,120.1,207.7,211.4,206.4z"/>
	<path d="M785.8,610.8c-27.2,7.5-42.2,1.5-58.9-21.5c-40.1-55.2-80.2-110.4-120.4-165.6c-1.9-2.7-4.2-5.1-7.7-9.3
		c-39.8,53.7-78.6,106-117.4,158.4c-6.9,9.4-13.4,19.2-21.2,27.7c-13.1,14.2-27.6,16.9-46.4,9.8c54.8-73.6,109.4-146.9,164.2-220.5
		C527,323.1,476.3,257.1,425.3,190.5c29.3-7.2,42.7-2.4,59.7,20.4c35.5,47.8,70.9,95.6,106.3,143.4c2.3,3.2,5,6.1,8.8,10.8
		c29.3-38.7,57.8-76.1,86-113.7c10.9-14.4,21-29.5,32.1-43.7c15.4-19.8,25.7-23.1,53.6-17.8c-9,12.2-17.2,23.9-25.9,35.3
		c-36.4,47.8-72.9,95.6-109.4,143.3c-15.3,20-15.4,22.8-0.6,42.5c46.6,62,93.3,124,139.9,186C779,601.1,781.9,605.4,785.8,610.8z"/>
</g>
</svg>
