<?xml version="1.0" encoding="utf-8"?>
<!-- Generator: Adobe Illustrator 19.0.0, SVG Export Plug-In . SVG Version: 6.00 Build 0)  -->
<svg version="1.1" id="Layer_2_1_" xmlns="http://www.w3.org/2000/svg" xmlns:xlink="http://www.w3.org/1999/xlink" x="0px" y="0px"
	 viewBox="-48.5 148.7 503.1 503.1" style="enable-background:new -48.5 148.7 503.1 503.1;" xml:space="preserve">
<style type="text/css">
	.st0{fill:#61DAFB;}
</style>
<g>
	<path class="st0" d="M448.3,400.2c0-32.5-40.7-63.3-103.1-82.4c14.4-63.6,8-114.2-20.2-130.4c-6.5-3.8-14.1-5.6-22.4-5.6v22.3
		c4.6,0,8.3,0.9,11.4,2.6c13.6,7.8,19.5,37.5,14.9,75.7c-1.1,9.4-2.9,19.3-5.1,29.4c-19.6-4.8-41-8.5-63.5-10.9
		c-13.5-18.5-27.5-35.3-41.6-50c32.6-30.3,63.2-46.9,84-46.9v-22.3l0,0c-27.5,0-63.5,19.6-99.9,53.6c-36.4-33.8-72.4-53.2-99.9-53.2
		v22.3c20.7,0,51.4,16.5,84,46.6c-14,14.7-28,31.4-41.3,49.9c-22.6,2.4-44,6.1-63.6,11c-2.3-10-4-19.7-5.2-29
		c-4.7-38.2,1.1-67.9,14.6-75.8c3-1.8,6.9-2.6,11.5-2.6v-22.3l0,0c-8.4,0-16,1.8-22.6,5.6C52.2,204,45.9,254.5,60.4,317.9
		c-62.2,19.2-102.7,49.9-102.7,82.3c0,32.5,40.7,63.3,103.1,82.4C46.4,546.2,52.8,596.8,81,613c6.5,3.8,14.1,5.6,22.5,5.6
		c27.5,0,63.5-19.6,99.9-53.6c36.4,33.8,72.4,53.2,99.9,53.2c8.4,0,16-1.8,22.6-5.6c28.1-16.2,34.4-66.7,19.9-130.1
		C407.8,463.4,448.3,432.6,448.3,400.2z M318.1,333.5c-3.7,12.9-8.3,26.2-13.5,39.5c-4.1-8-8.4-16-13.1-24
		c-4.6-8-9.5-15.8-14.4-23.4C291.3,327.7,305,330.3,318.1,333.5z M272.3,440c-7.8,13.5-15.8,26.3-24.1,38.2c-14.9,1.3-30,2-45.2,2
		c-15.1,0-30.2-0.7-45-1.9c-8.3-11.9-16.4-24.6-24.2-38c-7.6-13.1-14.5-26.4-20.8-39.8c6.2-13.4,13.2-26.8,20.7-39.9
		c7.8-13.5,15.8-26.3,24.1-38.2c14.9-1.3,30-2,45.2-2c15.1,0,30.2,0.7,45,1.9c8.3,11.9,16.4,24.6,24.2,38
		c7.6,13.1,14.5,26.4,20.8,39.8C286.7,413.5,279.8,426.9,272.3,440z M304.6,427c5.4,13.4,10,26.8,13.8,39.8
		c-13.1,3.2-26.9,5.9-41.2,8c4.9-7.7,9.8-15.6,14.4-23.7C296.2,443.1,300.5,435,304.6,427z M203.2,533.7c-9.3-9.6-18.6-20.3-27.8-32
		c9,0.4,18.2,0.7,27.5,0.7c9.4,0,18.7-0.2,27.8-0.7C221.7,513.4,212.4,524.1,203.2,533.7z M128.8,474.8c-14.2-2.1-27.9-4.7-41-7.9
		c3.7-12.9,8.3-26.2,13.5-39.5c4.1,8,8.4,16,13.1,24S123.9,467.2,128.8,474.8z M202.7,266.7c9.3,9.6,18.6,20.3,27.8,32
		c-9-0.4-18.2-0.7-27.5-0.7c-9.4,0-18.7,0.2-27.8,0.7C184.2,287,193.5,276.3,202.7,266.7z M128.7,325.6c-4.9,7.7-9.8,15.6-14.4,23.7
		c-4.6,8-8.9,16-13,24c-5.4-13.4-10-26.8-13.8-39.8C100.6,330.4,114.4,327.7,128.7,325.6z M38.2,450.8
		c-35.4-15.1-58.3-34.9-58.3-50.6s22.9-35.6,58.3-50.6c8.6-3.7,18-7,27.7-10.1c5.7,19.6,13.2,40,22.5,60.9
		c-9.2,20.8-16.6,41.1-22.2,60.6C56.3,457.9,46.9,454.5,38.2,450.8z M92,593.7c-13.6-7.8-19.5-37.5-14.9-75.7
		c1.1-9.4,2.9-19.3,5.1-29.4c19.6,4.8,41,8.5,63.5,10.9c13.5,18.5,27.5,35.3,41.6,50c-32.6,30.3-63.2,46.9-84,46.9
		C98.8,596.3,95,595.4,92,593.7z M329.2,517.5c4.7,38.2-1.1,67.9-14.6,75.8c-3,1.8-6.9,2.6-11.5,2.6c-20.7,0-51.4-16.5-84-46.6
		c14-14.7,28-31.4,41.3-49.9c22.6-2.4,44-6.1,63.6-11C326.3,498.5,328.1,508.2,329.2,517.5z M367.7,450.8c-8.6,3.7-18,7-27.7,10.1
		c-5.7-19.6-13.2-40-22.5-60.9c9.2-20.8,16.6-41.1,22.2-60.6c9.9,3.1,19.3,6.5,28.1,10.2c35.4,15.1,58.3,34.9,58.3,50.6
		C426,415.9,403.1,435.8,367.7,450.8z"/>
	<path class="st0" d="M102.8,182.1L102.8,182.1L102.8,182.1z"/>
	<circle class="st0" cx="202.9" cy="400.2" r="45.7"/>
	<path class="st0" d="M302.5,181.8L302.5,181.8L302.5,181.8z"/>
</g>
</svg>
