<?xml version="1.0" encoding="utf-8"?>
<!-- Generator: Adobe Illustrator 19.0.0, SVG Export Plug-In . SVG Version: 6.00 Build 0)  -->
<svg version="1.1" id="Layer_1" xmlns="http://www.w3.org/2000/svg" xmlns:xlink="http://www.w3.org/1999/xlink" x="0px" y="0px"
	 viewBox="0 0 500 500" style="enable-background:new 0 0 500 500;" xml:space="preserve">
<style type="text/css">
	.st0{fill:#007ACB;}
	.st1{fill:#FEFEFE;}
	.st2{fill:#FDFEFE;}
</style>
<g>
	<path class="st0" d="M-3,503.9C-3,335.8-3,167.6-3-0.6c0-1.6,0.4-2,2-2c168.2,0,336.3,0,504.5,0c0,167.9,0,335.8,0,503.6
		c0,2.8,0,2.8-2.8,2.8C332.8,503.9,164.9,503.9-3,503.9z M384.6,462.4c15.1,0.4,28.7-2,41.6-7.9c15.4-7,27.1-17.8,33.1-34
		c4.1-11.2,4.7-22.8,3.2-34.5c-1.9-13.9-7.1-26.2-17.3-36.2c-8.5-8.2-18.5-14-28.9-19.4c-11.8-6.1-24.2-10.9-36.1-16.7
		c-5.1-2.4-10.1-5-14-9.1c-5.8-6.1-7.1-13.5-4.9-21.4c2.1-7.5,7.6-11.7,15.1-13.1c13.1-2.4,24,1.1,32,12.3c1.3,1.8,2.7,3.6,4.1,5.4
		c0.6,0.7,1.2,1.1,2.2,0.5c11.3-7.3,22.6-14.5,33.5-22.4c1.1-0.8,0.8-1.5,0.3-2.3c-2-3.4-4.4-6.4-6.9-9.5
		c-8.3-10.5-18.7-18.2-31.5-22.3c-7.7-2.4-15.6-3-23.6-3.3c-10.2-0.4-20.3,0.2-30.1,3.6c-18.5,6.4-32,18.2-39.1,36.8
		c-3.4,8.9-3.3,18.2-3.2,27.5c0.2,12.7,4.5,23.9,11.9,34c7.3,10,17.2,17,28,22.9c11.6,6.3,24,11,35.9,16.7c6.4,3,12.8,6.1,18.5,10.5
		c10.7,8.4,10.6,27.2-2.4,34.7c-5.9,3.5-12.3,5.2-19,5.5c-13.9,0.6-26.4-2.9-36.6-13c-4.4-4.3-8.3-8.9-11.6-14.1
		c-0.5-0.7-0.8-1.4-2-0.8c-11.8,6.9-23.7,13.8-35.5,20.6c-1.4,0.8-1.5,1.6-0.7,2.9c8.1,14.2,18.6,25.9,33.2,33.7
		C349.8,458.9,367.1,463,384.6,462.4z M220.5,366c0-30.4,0-60.7,0-91.1c0-2,0.4-2.6,2.5-2.6c20.3,0.1,40.7,0,61,0.1
		c2,0,2.4-0.6,2.4-2.5c-0.2-12.2-0.3-24.5-0.3-36.7c0-1.9-0.6-2.3-2.4-2.3c-49.1,0-98.1-0.1-147.2-0.1c-8.5,0-16.9,0.1-25.4,0.1
		c-1.9,0-2.8,0.4-2.9,2.7c-0.5,12.1-0.1,24.2-0.3,36.3c0,1.9,0.4,2.5,2.4,2.5c20.2-0.1,40.4-0.1,60.6,0c3.2,0,3-0.4,3,2.9
		c0,60.6,0,121.3,0,181.9c0,2,0.5,2.5,2.5,2.5c13.9-0.1,27.9-0.1,41.8,0c1.9,0,2.5-0.4,2.5-2.4C220.5,426.9,220.5,396.4,220.5,366z"
		/>
	<path class="st1" d="M-3,503.9c167.9,0,335.8,0,503.6,0c2.8,0,2.8,0,2.8-2.8c0-167.9,0-335.8,0-503.6c0.1,0.1,0.4-0.2,0.4,0.2
		c0,0.6,0,1.1,0,1.7c0,167.6,0,335.3,0,502.9c0,1.7-0.3,2.1-2.1,2.1c-167.6-0.1-335.3,0-502.9-0.1C-1.7,504.3-2.5,504.8-3,503.9z"/>
	<path class="st2" d="M384.6,462.4c-17.5,0.6-34.8-3.4-51.1-12.2c-14.6-7.8-25.1-19.5-33.2-33.7c-0.7-1.3-0.6-2.1,0.7-2.9
		c11.9-6.8,23.7-13.7,35.5-20.6c1.2-0.7,1.5,0,2,0.8c3.3,5.2,7.3,9.8,11.6,14.1c10.2,10.1,22.7,13.6,36.6,13c6.8-0.3,13.1-2,19-5.5
		c13-7.6,13.1-26.4,2.4-34.7c-5.6-4.4-12-7.5-18.5-10.5c-11.9-5.6-24.3-10.4-35.9-16.7c-10.8-5.8-20.6-12.9-28-22.9
		c-7.4-10.1-11.7-21.3-11.9-34c-0.1-9.3-0.2-18.6,3.2-27.5c7.1-18.6,20.5-30.4,39.1-36.8c9.8-3.4,19.9-4,30.1-3.6
		c8,0.3,15.9,0.9,23.6,3.3c12.9,4.1,23.2,11.7,31.5,22.3c2.4,3.1,4.9,6.1,6.9,9.5c0.5,0.9,0.8,1.5-0.3,2.3
		c-10.9,7.9-22.2,15.1-33.5,22.4c-1,0.6-1.6,0.2-2.2-0.5c-1.4-1.8-2.8-3.6-4.1-5.4c-8-11.2-18.9-14.7-32-12.3
		c-7.5,1.4-12.9,5.6-15.1,13.1c-2.3,7.9-0.9,15.2,4.9,21.4c3.9,4.2,9,6.7,14,9.1c11.9,5.8,24.3,10.6,36.1,16.7
		c10.4,5.4,20.4,11.2,28.9,19.4c10.2,10,15.5,22.3,17.3,36.2c1.6,11.7,0.9,23.3-3.2,34.5c-5.9,16.2-17.6,27-33.1,34
		C413.3,460.3,399.7,462.8,384.6,462.4z"/>
	<path class="st1" d="M220.5,366c0,30.4,0,60.9,0.1,91.3c0,2-0.6,2.4-2.5,2.4c-13.9-0.1-27.9-0.1-41.8,0c-2,0-2.5-0.5-2.5-2.5
		c0.1-60.6,0-121.3,0-181.9c0-3.4,0.3-2.9-3-2.9c-20.2,0-40.4,0-60.6,0c-2,0-2.4-0.6-2.4-2.5c0.2-12.1-0.1-24.2,0.3-36.3
		c0.1-2.3,0.9-2.7,2.9-2.7c8.5,0,16.9-0.2,25.4-0.1c49.1,0,98.1,0.1,147.2,0.1c1.8,0,2.4,0.4,2.4,2.3c0,12.2,0.1,24.5,0.3,36.7
		c0,1.9-0.4,2.5-2.4,2.5c-20.3-0.1-40.7,0-61-0.1c-2.1,0-2.5,0.6-2.5,2.6C220.5,305.3,220.5,335.6,220.5,366z"/>
</g>
</svg>
