<?xml version="1.0" encoding="utf-8"?>
<!-- Generator: Adobe Illustrator 19.0.0, SVG Export Plug-In . SVG Version: 6.00 Build 0)  -->
<svg version="1.1" id="Layer_1" xmlns="http://www.w3.org/2000/svg" xmlns:xlink="http://www.w3.org/1999/xlink" x="0px" y="0px"
	 viewBox="-591 353 96 96" style="enable-background:new -591 353 96 96;" xml:space="preserve">
<style type="text/css">
	.st0{fill:#FFFFFF;}
</style>
<path class="st0" d="M-519,416h-30v6h30V416z M-519,428h-30v6h30V428z M-519,380h-30v6h30V380z M-519,392h-30v6h30V392z M-519,404
	h-30v6h30V404z M-555,404h-12v6h12V404z M-510,356h-66c-1.7,0-3,1.3-3,3v84c0,1.7,1.3,3,3,3h66c1.7,0,3-1.3,3-3v-84
	C-507,357.3-508.3,356-510,356z M-513,440h-60v-78h60V440z M-555,392h-12v6h12V392z M-555,380c0-1.9-1.2-3.6-3-4.2
	c0.9-0.8,1.5-2,1.5-3.3c0-2.5-2-4.5-4.5-4.5s-4.5,2-4.5,4.5c0,1.3,0.6,2.5,1.5,3.3c-1.7,0.6-3,2.3-3,4.2v6h12V380z"/>
</svg>
