<?xml version="1.0" encoding="utf-8"?>
<!-- Generator: Adobe Illustrator 19.0.0, SVG Export Plug-In . SVG Version: 6.00 Build 0)  -->
<svg version="1.1" id="Icons_Lecturer" xmlns="http://www.w3.org/2000/svg" xmlns:xlink="http://www.w3.org/1999/xlink" x="0px"
	 y="0px" viewBox="-591 353 96 96" style="enable-background:new -591 353 96 96;" xml:space="preserve">
<style type="text/css">
	.st0{fill:#FFFFFF;}
</style>
<path class="st0" d="M-543,372.5c4.4,0,8-3.6,8-8s-3.6-8-8-8s-8,3.6-8,8S-547.4,372.5-543,372.5"/>
<path class="st0" d="M-523,402.5l4-12h-48l4,12h6l4,39h-6v4h32v-4h-6l4-39H-523z"/>
<path class="st0" d="M-526.8,381.9c-0.2-0.8-0.6-1.6-1.2-2.2c-2.4-2-5.2-3.4-8.4-4.4c-2.2-0.4-4.4-0.8-6.6-0.8s-4.4,0.4-6.6,1
	c-3.2,0.8-6,2.4-8.4,4.4c-0.6,0.6-1,1.4-1.2,2.2l-1,4.4h34.5L-526.8,381.9z"/>
</svg>
