<?xml version="1.0" encoding="utf-8"?>
<!-- Generator: Adobe Illustrator 19.0.0, SVG Export Plug-In . SVG Version: 6.00 Build 0)  -->
<svg version="1.1" id="Icons_Teacher" xmlns="http://www.w3.org/2000/svg" xmlns:xlink="http://www.w3.org/1999/xlink" x="0px"
	 y="0px" viewBox="-591 353 96 96" style="enable-background:new -591 353 96 96;" xml:space="preserve">
<style type="text/css">
	.st0{fill:#FFFFFF;}
</style>
<path class="st0" d="M-503.2,372h-64c-2.2,0-4,1.8-4,4v14.5c1.1-0.3,2.4-0.5,3.6-0.5c0.8,0,1.6,0.1,2.4,0.2V378h60v38h-33.9l-5.7,6
	h41.6c2.2,0,4-1.8,4-4v-42C-499.2,373.8-501,372-503.2,372"/>
<path class="st0" d="M-567.5,411c4.7,0,8.5-3.8,8.5-8.5s-3.8-8.5-8.5-8.5s-8.5,3.8-8.5,8.5C-576.1,407.2-572.2,411-567.5,411"/>
<path class="st0" d="M-534.8,401.1c-1.3-2-3.9-2.5-5.9-1.3c-0.4,0.2-0.6,0.6-0.8,0.8l-14.6,15.2c-1.4-0.7-2.9-1.3-4.4-1.8
	c-2.3-0.4-4.7-0.9-7-0.9s-4.7,0.4-7,1.1c-3.4,0.9-6.4,2.6-8.9,4.7c-0.6,0.6-1.1,1.5-1.3,2.3l-2.1,8.8h29.9v-0.1l8.5-9.9l13.1-13.8
	C-534.1,405-533.7,402.7-534.8,401.1"/>
</svg>
