<?xml version="1.0" encoding="utf-8"?>
<!-- Generator: Adobe Illustrator 19.0.0, SVG Export Plug-In . SVG Version: 6.00 Build 0)  -->
<svg version="1.1" id="Layer_1" xmlns="http://www.w3.org/2000/svg" xmlns:xlink="http://www.w3.org/1999/xlink" x="0px" y="0px"
	 viewBox="-623 385 32 32" style="enable-background:new -623 385 32 32;" xml:space="preserve">
<style type="text/css">
	.st0{fill:#FFFFFF;}
</style>
<g transform="translate(0 192)">
	<path class="st0" d="M-597,208l6-4v16l-6-4V208z M-599,208v8c0,2.2-1.8,4-4,4h-16c-2.2,0-4-1.8-4-4v-8c0-2.2,1.8-4,4-4h10
		c0-1.1,0.9-2,2-2v-2h-11c-0.6,0-1-0.4-1-1s0.4-1,1-1h12c0.6,0,1,0.4,1,1v3c1.1,0,2,0.9,2,2C-600.8,204-599,205.8-599,208z
		 M-611,208h-8v8h8V208z M-603,209c0-0.6-0.4-1-1-1h-4c-0.6,0-1,0.4-1,1s0.4,1,1,1h4C-603.4,210-603,209.6-603,209z"/>
</g>
</svg>
